<?xml version="1.0" ?><!DOCTYPE svg  PUBLIC '-//W3C//DTD SVG 1.1//EN'  'http://www.w3.org/Graphics/SVG/1.1/DTD/svg11.dtd'><svg enable-background="new 0 0 512 512" id="Layer_1" version="1.1" viewBox="0 0 512 512" xml:space="preserve" xmlns="http://www.w3.org/2000/svg" xmlns:xlink="http://www.w3.org/1999/xlink"><g><path d="M214.7,244.8c7.1,2.9,13.2,6.2,18.8,10.4c15.9,11.8,24.2,28.1,27.2,47.2c3.1,19.2,1.5,38.2-6.4,56.2   c-13.6,30.7-36.8,49-70.1,54.3c-14.2,2.3-28.4,3-42.7,3c-42.8-0.1-85.6-0.1-128.5,0.1c-4.6,0-6.2-0.8-6.2-5.9   c0.2-102.5,0.1-204.9,0-307.4c0-4.6,1.2-5.8,5.8-5.8c47.7,0.2,95.3,0.1,143,0.1c16.3,0,32.2,2.1,47.4,8   c28.1,10.8,44.1,31.4,48.1,61.4c1.8,13,1.2,25.9-2.3,38.6c-4.5,16.3-14.6,28.1-29,36.6C218.3,242.5,216.8,243.5,214.7,244.8z    M78.8,317.6c0,12,0,24,0,36c0,6.6,0,6.6,6.4,6.6c19.5,0,39,0,58.5,0c6.3,0,12.6,0.1,18.9-1.2c9.7-1.9,18.5-5.3,24.8-13.5   c9.6-12.5,10.2-26.7,7.8-41.4c-1.6-9.6-7.1-16.6-15.5-21.5c-7.9-4.7-16.5-6.5-25.3-6.6c-23.6-0.3-47.3-0.1-71-0.3   c-3.9,0-4.7,1.4-4.7,4.9C78.9,293,78.8,305.3,78.8,317.6z M115.3,222.9c10.2,0,20.3,0.2,30.5-0.1c8.7-0.2,17.2-1.2,25.4-4.7   c8.9-3.8,15.4-9.8,17.7-19.5c1.3-5.6,1.5-11.2,1.1-16.9c-1.1-13.6-8.7-22.4-21.8-25.8c-9.1-2.3-18.4-3.4-27.6-3.7   c-19.2-0.4-38.3-0.1-57.5-0.2c-2.9,0-4.2,0.6-4.2,3.9c0.1,21,0.1,42,0,63c0,3.1,1.1,4,4.1,4C93.7,222.8,104.5,222.9,115.3,222.9z" fill="#A7A7A7"/><path d="M426.2,308.8c-25.3,0-50.7,0.1-76-0.1c-4.8,0-5.6,1.6-5,5.8c1.4,8.7,2.8,17.5,7.2,25.3   c9.4,16.3,24,24,42.3,25.2c15.6,1,30.3-1.5,41.6-13.8c1.3-1.5,3-2.9,3.7-4.7c2.7-6.6,7.5-7.8,14.2-7.6c15,0.5,30,0.3,45,0.1   c4,0,5.3,0.8,4.2,5.1c-4.1,17-14.1,30.4-26.5,42.1c-18.1,17-40.1,24.7-64.5,27.1c-22.6,2.2-44.2-1-64.8-10.3   c-32.5-14.6-52.8-39-58.7-74.7c-4.9-29.3-4.7-58.4,4.9-86.8c11.8-35.1,36.4-57.1,72-66.3c27.9-7.2,55.6-5.1,82,6.5   c25.2,11,41.2,31,50.9,56.2c5.7,14.7,8.2,30.1,8.4,45.9c0.1,6.7,0.3,13.3,0.7,20c0.3,3.9-1.1,5.2-5.1,5.2   C477.2,308.7,451.7,308.8,426.2,308.8z M397,269c15.2,0,30.3,0,45.5-0.1c1.5,0,4.3,1.5,3.9-2.5c-1.5-14.1-6-26.5-17.8-35.4   c-18.3-13.8-46.2-14.1-63.7,0.1c-10.8,8.7-15.3,21-17.9,34.2c-0.7,3.6,1.4,3.7,4,3.7C366.4,269,381.7,269,397,269z" fill="#A7A7A7"/><path d="M396,142.7c-19.2,0-38.3-0.1-57.5,0.1c-4.1,0-5.6-1.1-5.4-5.3c0.3-7.6,0.2-15.3,0-23   c-0.1-3.3,1.1-4.3,4.4-4.3c39.1,0.1,78.3,0.1,117.4,0c3,0,4.1,0.8,4,4c-0.2,8-0.2,16,0,24c0.1,3.9-1.6,4.7-5,4.7   C434.7,142.7,415.3,142.7,396,142.7z" fill="#A7A7A7"/></g></svg>